{
	"asset":{
		"generator":"Khronos glTF Blender I/O v3.6.27",
		"version":"2.0"
	},
	"scene":0,
	"scenes":[
		{
			"name":"Scene",
			"nodes":[
				0,
				1,
				2,
				3,
				4,
				5,
				6,
				7,
				8,
				9,
				10,
				11,
				12
			]
		}
	],
	"nodes":[
		{
			"mesh":0,
			"name":"board",
			"scale":[
				18.828489303588867,
				1.7182503938674927,
				8.413399696350098
			],
			"translation":[
				0,
				6.249028205871582,
				0
			]
		},
		{
			"mesh":1,
			"name":"house-1",
			"scale":[
				18.828489303588867,
				1.7182503938674927,
				8.413399696350098
			],
			"translation":[
				0,
				6.249028205871582,
				0
			]
		},
		{
			"mesh":2,
			"name":"house-2",
			"scale":[
				18.828489303588867,
				1.7182503938674927,
				8.413399696350098
			],
			"translation":[
				0,
				6.249028205871582,
				0
			]
		},
		{
			"mesh":3,
			"name":"house-3",
			"scale":[
				18.828489303588867,
				1.7182503938674927,
				8.413399696350098
			],
			"translation":[
				0,
				6.249028205871582,
				0
			]
		},
		{
			"mesh":4,
			"name":"house-4",
			"scale":[
				18.828489303588867,
				1.7182503938674927,
				8.413399696350098
			],
			"translation":[
				0,
				6.249028205871582,
				0
			]
		},
		{
			"mesh":5,
			"name":"house-5",
			"scale":[
				18.828489303588867,
				1.7182503938674927,
				8.413399696350098
			],
			"translation":[
				0,
				6.249028205871582,
				0
			]
		},
		{
			"mesh":6,
			"name":"house-6",
			"scale":[
				18.828489303588867,
				1.7182503938674927,
				8.413399696350098
			],
			"translation":[
				0,
				6.249028205871582,
				0
			]
		},
		{
			"mesh":7,
			"name":"house-7",
			"scale":[
				18.828489303588867,
				1.7182503938674927,
				8.413399696350098
			],
			"translation":[
				0,
				6.249028205871582,
				0
			]
		},
		{
			"mesh":8,
			"name":"house-8",
			"scale":[
				18.828489303588867,
				1.7182503938674927,
				8.413399696350098
			],
			"translation":[
				0,
				6.249028205871582,
				0
			]
		},
		{
			"mesh":9,
			"name":"house-9",
			"scale":[
				18.828489303588867,
				1.7182503938674927,
				8.413399696350098
			],
			"translation":[
				0,
				6.249028205871582,
				0
			]
		},
		{
			"mesh":10,
			"name":"house-10",
			"scale":[
				18.828489303588867,
				1.7182503938674927,
				8.413399696350098
			],
			"translation":[
				0,
				6.249028205871582,
				0
			]
		},
		{
			"mesh":11,
			"name":"house-11",
			"scale":[
				18.828489303588867,
				1.7182503938674927,
				8.413399696350098
			],
			"translation":[
				0,
				6.249028205871582,
				0
			]
		},
		{
			"mesh":12,
			"name":"house-12",
			"scale":[
				18.828489303588867,
				1.7182503938674927,
				8.413399696350098
			],
			"translation":[
				0,
				6.249028205871582,
				0
			]
		}
	],
	"materials":[
		{
			"doubleSided":true,
			"name":"Material.002",
			"pbrMetallicRoughness":{
				"baseColorTexture":{
					"index":0
				},
				"metallicFactor":0,
				"roughnessFactor":0.5
			}
		}
	],
	"meshes":[
		{
			"name":"Cube.001",
			"primitives":[
				{
					"attributes":{
						"POSITION":0,
						"NORMAL":1,
						"TEXCOORD_0":2
					},
					"indices":3,
					"material":0
				},
				{
					"attributes":{
						"POSITION":4,
						"NORMAL":5,
						"TEXCOORD_0":6
					},
					"indices":7,
					"material":0
				}
			]
		},
		{
			"name":"Cube.002",
			"primitives":[
				{
					"attributes":{
						"POSITION":8,
						"NORMAL":9,
						"TEXCOORD_0":10
					},
					"indices":11,
					"material":0
				}
			]
		},
		{
			"name":"Cube.003",
			"primitives":[
				{
					"attributes":{
						"POSITION":12,
						"NORMAL":13,
						"TEXCOORD_0":14
					},
					"indices":15,
					"material":0
				}
			]
		},
		{
			"name":"Cube.004",
			"primitives":[
				{
					"attributes":{
						"POSITION":16,
						"NORMAL":17,
						"TEXCOORD_0":18
					},
					"indices":19,
					"material":0
				}
			]
		},
		{
			"name":"Cube.005",
			"primitives":[
				{
					"attributes":{
						"POSITION":20,
						"NORMAL":21,
						"TEXCOORD_0":22
					},
					"indices":23,
					"material":0
				}
			]
		},
		{
			"name":"Cube.006",
			"primitives":[
				{
					"attributes":{
						"POSITION":24,
						"NORMAL":25,
						"TEXCOORD_0":26
					},
					"indices":27,
					"material":0
				}
			]
		},
		{
			"name":"Cube.007",
			"primitives":[
				{
					"attributes":{
						"POSITION":28,
						"NORMAL":29,
						"TEXCOORD_0":30
					},
					"indices":31,
					"material":0
				}
			]
		},
		{
			"name":"Cube.008",
			"primitives":[
				{
					"attributes":{
						"POSITION":32,
						"NORMAL":33,
						"TEXCOORD_0":34
					},
					"indices":35,
					"material":0
				}
			]
		},
		{
			"name":"Cube.009",
			"primitives":[
				{
					"attributes":{
						"POSITION":36,
						"NORMAL":37,
						"TEXCOORD_0":38
					},
					"indices":39,
					"material":0
				}
			]
		},
		{
			"name":"Cube.010",
			"primitives":[
				{
					"attributes":{
						"POSITION":40,
						"NORMAL":41,
						"TEXCOORD_0":42
					},
					"indices":43,
					"material":0
				}
			]
		},
		{
			"name":"Cube.011",
			"primitives":[
				{
					"attributes":{
						"POSITION":44,
						"NORMAL":45,
						"TEXCOORD_0":46
					},
					"indices":47,
					"material":0
				}
			]
		},
		{
			"name":"Cube.012",
			"primitives":[
				{
					"attributes":{
						"POSITION":48,
						"NORMAL":49,
						"TEXCOORD_0":50
					},
					"indices":51,
					"material":0
				}
			]
		},
		{
			"name":"Cube.013",
			"primitives":[
				{
					"attributes":{
						"POSITION":52,
						"NORMAL":53,
						"TEXCOORD_0":54
					},
					"indices":55,
					"material":0
				}
			]
		}
	],
	"textures":[
		{
			"sampler":0,
			"source":0
		}
	],
	"images":[
		{
			"bufferView":4,
			"mimeType":"image/jpeg",
			"name":"brown-wood-textured-background-with-design-space"
		}
	],
	"accessors":[
		{
			"bufferView":0,
			"componentType":5126,
			"count":15905,
			"max":[
				1.0000001192092896,
				1.0000001192092896,
				1.0000001192092896
			],
			"min":[
				-1.0000001192092896,
				-1.0000001192092896,
				-1.0000001192092896
			],
			"type":"VEC3"
		},
		{
			"bufferView":1,
			"componentType":5126,
			"count":15905,
			"type":"VEC3"
		},
		{
			"bufferView":2,
			"componentType":5126,
			"count":15905,
			"type":"VEC2"
		},
		{
			"bufferView":3,
			"componentType":5123,
			"count":29496,
			"type":"SCALAR"
		},
		{
			"bufferView":5,
			"componentType":5126,
			"count":5,
			"max":[
				-0.4964989125728607,
				1.0000001192092896,
				0.16044320166110992
			],
			"min":[
				-0.5140144228935242,
				0.9502487182617188,
				0.12749987840652466
			],
			"type":"VEC3"
		},
		{
			"bufferView":6,
			"componentType":5126,
			"count":5,
			"type":"VEC3"
		},
		{
			"bufferView":7,
			"componentType":5126,
			"count":5,
			"type":"VEC2"
		},
		{
			"bufferView":8,
			"componentType":5123,
			"count":9,
			"type":"SCALAR"
		},
		{
			"bufferView":9,
			"componentType":5126,
			"count":382,
			"max":[
				-0.6489617824554443,
				1.0000001192092896,
				0.5854005813598633
			],
			"min":[
				-0.8743663430213928,
				-0.5256710648536682,
				0.08096376061439514
			],
			"type":"VEC3"
		},
		{
			"bufferView":10,
			"componentType":5126,
			"count":382,
			"type":"VEC3"
		},
		{
			"bufferView":11,
			"componentType":5126,
			"count":382,
			"type":"VEC2"
		},
		{
			"bufferView":12,
			"componentType":5123,
			"count":1884,
			"type":"SCALAR"
		},
		{
			"bufferView":13,
			"componentType":5126,
			"count":367,
			"max":[
				-0.3231508433818817,
				1.0000001192092896,
				0.5854005813598633
			],
			"min":[
				-0.5485553741455078,
				-0.5256710648536682,
				0.08096376061439514
			],
			"type":"VEC3"
		},
		{
			"bufferView":14,
			"componentType":5126,
			"count":367,
			"type":"VEC3"
		},
		{
			"bufferView":15,
			"componentType":5126,
			"count":367,
			"type":"VEC2"
		},
		{
			"bufferView":16,
			"componentType":5123,
			"count":1833,
			"type":"SCALAR"
		},
		{
			"bufferView":17,
			"componentType":5126,
			"count":366,
			"max":[
				-0.010285988450050354,
				1.0000001192092896,
				0.5854005813598633
			],
			"min":[
				-0.23569053411483765,
				-0.5256710648536682,
				0.08096376061439514
			],
			"type":"VEC3"
		},
		{
			"bufferView":18,
			"componentType":5126,
			"count":366,
			"type":"VEC3"
		},
		{
			"bufferView":19,
			"componentType":5126,
			"count":366,
			"type":"VEC2"
		},
		{
			"bufferView":20,
			"componentType":5123,
			"count":1836,
			"type":"SCALAR"
		},
		{
			"bufferView":21,
			"componentType":5126,
			"count":368,
			"max":[
				0.302578866481781,
				1.0000001192092896,
				0.5854005813598633
			],
			"min":[
				0.07717429846525192,
				-0.5256710648536682,
				0.08096376061439514
			],
			"type":"VEC3"
		},
		{
			"bufferView":22,
			"componentType":5126,
			"count":368,
			"type":"VEC3"
		},
		{
			"bufferView":23,
			"componentType":5126,
			"count":368,
			"type":"VEC2"
		},
		{
			"bufferView":24,
			"componentType":5123,
			"count":1842,
			"type":"SCALAR"
		},
		{
			"bufferView":25,
			"componentType":5126,
			"count":368,
			"max":[
				0.5917091369628906,
				1.0000001192092896,
				0.5854005813598633
			],
			"min":[
				0.36630454659461975,
				-0.5256710648536682,
				0.08096376061439514
			],
			"type":"VEC3"
		},
		{
			"bufferView":26,
			"componentType":5126,
			"count":368,
			"type":"VEC3"
		},
		{
			"bufferView":27,
			"componentType":5126,
			"count":368,
			"type":"VEC2"
		},
		{
			"bufferView":28,
			"componentType":5123,
			"count":1842,
			"type":"SCALAR"
		},
		{
			"bufferView":29,
			"componentType":5126,
			"count":382,
			"max":[
				0.8678932785987854,
				1.0000001192092896,
				0.5854005813598633
			],
			"min":[
				0.6424887180328369,
				-0.5256710648536682,
				0.08096376061439514
			],
			"type":"VEC3"
		},
		{
			"bufferView":30,
			"componentType":5126,
			"count":382,
			"type":"VEC3"
		},
		{
			"bufferView":31,
			"componentType":5126,
			"count":382,
			"type":"VEC2"
		},
		{
			"bufferView":32,
			"componentType":5123,
			"count":1884,
			"type":"SCALAR"
		},
		{
			"bufferView":33,
			"componentType":5126,
			"count":382,
			"max":[
				0.8678932785987854,
				1.0000001192092896,
				-0.08096393942832947
			],
			"min":[
				0.6424887180328369,
				-0.5256710648536682,
				-0.5854007005691528
			],
			"type":"VEC3"
		},
		{
			"bufferView":34,
			"componentType":5126,
			"count":382,
			"type":"VEC3"
		},
		{
			"bufferView":35,
			"componentType":5126,
			"count":382,
			"type":"VEC2"
		},
		{
			"bufferView":36,
			"componentType":5123,
			"count":1884,
			"type":"SCALAR"
		},
		{
			"bufferView":37,
			"componentType":5126,
			"count":368,
			"max":[
				0.5917091369628906,
				1.0000001192092896,
				-0.08096393942832947
			],
			"min":[
				0.36630454659461975,
				-0.5256710648536682,
				-0.5854007005691528
			],
			"type":"VEC3"
		},
		{
			"bufferView":38,
			"componentType":5126,
			"count":368,
			"type":"VEC3"
		},
		{
			"bufferView":39,
			"componentType":5126,
			"count":368,
			"type":"VEC2"
		},
		{
			"bufferView":40,
			"componentType":5123,
			"count":1842,
			"type":"SCALAR"
		},
		{
			"bufferView":41,
			"componentType":5126,
			"count":368,
			"max":[
				0.302578866481781,
				1.0000001192092896,
				-0.08096393942832947
			],
			"min":[
				0.07717429846525192,
				-0.5256710648536682,
				-0.5854007005691528
			],
			"type":"VEC3"
		},
		{
			"bufferView":42,
			"componentType":5126,
			"count":368,
			"type":"VEC3"
		},
		{
			"bufferView":43,
			"componentType":5126,
			"count":368,
			"type":"VEC2"
		},
		{
			"bufferView":44,
			"componentType":5123,
			"count":1842,
			"type":"SCALAR"
		},
		{
			"bufferView":45,
			"componentType":5126,
			"count":366,
			"max":[
				-0.010285988450050354,
				1.0000001192092896,
				-0.08096393942832947
			],
			"min":[
				-0.23569053411483765,
				-0.5256710648536682,
				-0.5854007005691528
			],
			"type":"VEC3"
		},
		{
			"bufferView":46,
			"componentType":5126,
			"count":366,
			"type":"VEC3"
		},
		{
			"bufferView":47,
			"componentType":5126,
			"count":366,
			"type":"VEC2"
		},
		{
			"bufferView":48,
			"componentType":5123,
			"count":1836,
			"type":"SCALAR"
		},
		{
			"bufferView":49,
			"componentType":5126,
			"count":368,
			"max":[
				-0.3231508433818817,
				1.0000001192092896,
				-0.08096393942832947
			],
			"min":[
				-0.5485553741455078,
				-0.5256710648536682,
				-0.5854007005691528
			],
			"type":"VEC3"
		},
		{
			"bufferView":50,
			"componentType":5126,
			"count":368,
			"type":"VEC3"
		},
		{
			"bufferView":51,
			"componentType":5126,
			"count":368,
			"type":"VEC2"
		},
		{
			"bufferView":52,
			"componentType":5123,
			"count":1842,
			"type":"SCALAR"
		},
		{
			"bufferView":53,
			"componentType":5126,
			"count":382,
			"max":[
				-0.6489617824554443,
				1.0000001192092896,
				-0.08096393942832947
			],
			"min":[
				-0.8743663430213928,
				-0.5256710648536682,
				-0.5854007005691528
			],
			"type":"VEC3"
		},
		{
			"bufferView":54,
			"componentType":5126,
			"count":382,
			"type":"VEC3"
		},
		{
			"bufferView":55,
			"componentType":5126,
			"count":382,
			"type":"VEC2"
		},
		{
			"bufferView":56,
			"componentType":5123,
			"count":1884,
			"type":"SCALAR"
		}
	],
	"bufferViews":[
		{
			"buffer":0,
			"byteLength":190860,
			"byteOffset":0,
			"target":34962
		},
		{
			"buffer":0,
			"byteLength":190860,
			"byteOffset":190860,
			"target":34962
		},
		{
			"buffer":0,
			"byteLength":127240,
			"byteOffset":381720,
			"target":34962
		},
		{
			"buffer":0,
			"byteLength":58992,
			"byteOffset":508960,
			"target":34963
		},
		{
			"buffer":0,
			"byteLength":512564,
			"byteOffset":567952
		},
		{
			"buffer":0,
			"byteLength":60,
			"byteOffset":1080516,
			"target":34962
		},
		{
			"buffer":0,
			"byteLength":60,
			"byteOffset":1080576,
			"target":34962
		},
		{
			"buffer":0,
			"byteLength":40,
			"byteOffset":1080636,
			"target":34962
		},
		{
			"buffer":0,
			"byteLength":18,
			"byteOffset":1080676,
			"target":34963
		},
		{
			"buffer":0,
			"byteLength":4584,
			"byteOffset":1080696,
			"target":34962
		},
		{
			"buffer":0,
			"byteLength":4584,
			"byteOffset":1085280,
			"target":34962
		},
		{
			"buffer":0,
			"byteLength":3056,
			"byteOffset":1089864,
			"target":34962
		},
		{
			"buffer":0,
			"byteLength":3768,
			"byteOffset":1092920,
			"target":34963
		},
		{
			"buffer":0,
			"byteLength":4404,
			"byteOffset":1096688,
			"target":34962
		},
		{
			"buffer":0,
			"byteLength":4404,
			"byteOffset":1101092,
			"target":34962
		},
		{
			"buffer":0,
			"byteLength":2936,
			"byteOffset":1105496,
			"target":34962
		},
		{
			"buffer":0,
			"byteLength":3666,
			"byteOffset":1108432,
			"target":34963
		},
		{
			"buffer":0,
			"byteLength":4392,
			"byteOffset":1112100,
			"target":34962
		},
		{
			"buffer":0,
			"byteLength":4392,
			"byteOffset":1116492,
			"target":34962
		},
		{
			"buffer":0,
			"byteLength":2928,
			"byteOffset":1120884,
			"target":34962
		},
		{
			"buffer":0,
			"byteLength":3672,
			"byteOffset":1123812,
			"target":34963
		},
		{
			"buffer":0,
			"byteLength":4416,
			"byteOffset":1127484,
			"target":34962
		},
		{
			"buffer":0,
			"byteLength":4416,
			"byteOffset":1131900,
			"target":34962
		},
		{
			"buffer":0,
			"byteLength":2944,
			"byteOffset":1136316,
			"target":34962
		},
		{
			"buffer":0,
			"byteLength":3684,
			"byteOffset":1139260,
			"target":34963
		},
		{
			"buffer":0,
			"byteLength":4416,
			"byteOffset":1142944,
			"target":34962
		},
		{
			"buffer":0,
			"byteLength":4416,
			"byteOffset":1147360,
			"target":34962
		},
		{
			"buffer":0,
			"byteLength":2944,
			"byteOffset":1151776,
			"target":34962
		},
		{
			"buffer":0,
			"byteLength":3684,
			"byteOffset":1154720,
			"target":34963
		},
		{
			"buffer":0,
			"byteLength":4584,
			"byteOffset":1158404,
			"target":34962
		},
		{
			"buffer":0,
			"byteLength":4584,
			"byteOffset":1162988,
			"target":34962
		},
		{
			"buffer":0,
			"byteLength":3056,
			"byteOffset":1167572,
			"target":34962
		},
		{
			"buffer":0,
			"byteLength":3768,
			"byteOffset":1170628,
			"target":34963
		},
		{
			"buffer":0,
			"byteLength":4584,
			"byteOffset":1174396,
			"target":34962
		},
		{
			"buffer":0,
			"byteLength":4584,
			"byteOffset":1178980,
			"target":34962
		},
		{
			"buffer":0,
			"byteLength":3056,
			"byteOffset":1183564,
			"target":34962
		},
		{
			"buffer":0,
			"byteLength":3768,
			"byteOffset":1186620,
			"target":34963
		},
		{
			"buffer":0,
			"byteLength":4416,
			"byteOffset":1190388,
			"target":34962
		},
		{
			"buffer":0,
			"byteLength":4416,
			"byteOffset":1194804,
			"target":34962
		},
		{
			"buffer":0,
			"byteLength":2944,
			"byteOffset":1199220,
			"target":34962
		},
		{
			"buffer":0,
			"byteLength":3684,
			"byteOffset":1202164,
			"target":34963
		},
		{
			"buffer":0,
			"byteLength":4416,
			"byteOffset":1205848,
			"target":34962
		},
		{
			"buffer":0,
			"byteLength":4416,
			"byteOffset":1210264,
			"target":34962
		},
		{
			"buffer":0,
			"byteLength":2944,
			"byteOffset":1214680,
			"target":34962
		},
		{
			"buffer":0,
			"byteLength":3684,
			"byteOffset":1217624,
			"target":34963
		},
		{
			"buffer":0,
			"byteLength":4392,
			"byteOffset":1221308,
			"target":34962
		},
		{
			"buffer":0,
			"byteLength":4392,
			"byteOffset":1225700,
			"target":34962
		},
		{
			"buffer":0,
			"byteLength":2928,
			"byteOffset":1230092,
			"target":34962
		},
		{
			"buffer":0,
			"byteLength":3672,
			"byteOffset":1233020,
			"target":34963
		},
		{
			"buffer":0,
			"byteLength":4416,
			"byteOffset":1236692,
			"target":34962
		},
		{
			"buffer":0,
			"byteLength":4416,
			"byteOffset":1241108,
			"target":34962
		},
		{
			"buffer":0,
			"byteLength":2944,
			"byteOffset":1245524,
			"target":34962
		},
		{
			"buffer":0,
			"byteLength":3684,
			"byteOffset":1248468,
			"target":34963
		},
		{
			"buffer":0,
			"byteLength":4584,
			"byteOffset":1252152,
			"target":34962
		},
		{
			"buffer":0,
			"byteLength":4584,
			"byteOffset":1256736,
			"target":34962
		},
		{
			"buffer":0,
			"byteLength":3056,
			"byteOffset":1261320,
			"target":34962
		},
		{
			"buffer":0,
			"byteLength":3768,
			"byteOffset":1264376,
			"target":34963
		}
	],
	"samplers":[
		{
			"magFilter":9729,
			"minFilter":9987
		}
	],
	"buffers":[
		{
			"byteLength":1268144,
			"uri":"data:application/octet-stream;base64,"
		}
	]
}
