{
	"asset":{
		"generator":"Khronos glTF Blender I/O v3.6.27",
		"version":"2.0"
	},
	"scene":0,
	"scenes":[
		{
			"name":"Scene",
			"nodes":[
				0,
				1,
				2
			]
		}
	],
	"nodes":[
		{
			"mesh":0,
			"name":"bulb",
			"scale":[
				0.37485170364379883,
				0.37485170364379883,
				0.37485170364379883
			]
		},
		{
			"mesh":1,
			"name":"bulb-body",
			"scale":[
				0.37485170364379883,
				0.37485170364379883,
				0.37485170364379883
			]
		},
		{
			"mesh":2,
			"name":"bulb-top",
			"scale":[
				0.37485170364379883,
				0.37485170364379883,
				0.37485170364379883
			]
		}
	],
	"materials":[
		{
			"doubleSided":true,
			"name":"Material.001",
			"pbrMetallicRoughness":{
				"baseColorFactor":[
					0.1451743245124817,
					0.08165296167135239,
					0.07185754925012589,
					1
				],
				"roughnessFactor":0
			}
		},
		{
			"doubleSided":true,
			"name":"Material.002",
			"pbrMetallicRoughness":{
				"baseColorFactor":[
					0.6267260909080505,
					0.3090335428714752,
					0.005456633400171995,
					1
				],
				"metallicFactor":0
			}
		}
	],
	"meshes":[
		{
			"name":"Sphere",
			"primitives":[
				{
					"attributes":{
						"POSITION":0,
						"NORMAL":1,
						"TEXCOORD_0":2
					},
					"indices":3
				}
			]
		},
		{
			"name":"Sphere.001",
			"primitives":[
				{
					"attributes":{
						"POSITION":4,
						"NORMAL":5,
						"TEXCOORD_0":6
					},
					"indices":7,
					"material":0
				}
			]
		},
		{
			"name":"Sphere.002",
			"primitives":[
				{
					"attributes":{
						"POSITION":8,
						"NORMAL":9,
						"TEXCOORD_0":10
					},
					"indices":11,
					"material":1
				}
			]
		}
	],
	"accessors":[
		{
			"bufferView":0,
			"componentType":5126,
			"count":516,
			"max":[
				0.9999997019767761,
				1,
				0.9999993443489075
			],
			"min":[
				-0.9999990463256836,
				-1,
				-1
			],
			"type":"VEC3"
		},
		{
			"bufferView":1,
			"componentType":5126,
			"count":516,
			"type":"VEC3"
		},
		{
			"bufferView":2,
			"componentType":5126,
			"count":516,
			"type":"VEC2"
		},
		{
			"bufferView":3,
			"componentType":5123,
			"count":2469,
			"type":"SCALAR"
		},
		{
			"bufferView":4,
			"componentType":5126,
			"count":170,
			"max":[
				0.9440121054649353,
				-0.9238795042037964,
				0.8416883945465088
			],
			"min":[
				-0.9387106895446777,
				-2.2339963912963867,
				-0.8407394886016846
			],
			"type":"VEC3"
		},
		{
			"bufferView":5,
			"componentType":5126,
			"count":170,
			"type":"VEC3"
		},
		{
			"bufferView":6,
			"componentType":5126,
			"count":170,
			"type":"VEC2"
		},
		{
			"bufferView":7,
			"componentType":5123,
			"count":657,
			"type":"SCALAR"
		},
		{
			"bufferView":8,
			"componentType":5126,
			"count":66,
			"max":[
				0.9310615062713623,
				-0.8314695954322815,
				0.8396057486534119
			],
			"min":[
				-0.9387106895446777,
				-0.9238795042037964,
				-0.8407394886016846
			],
			"type":"VEC3"
		},
		{
			"bufferView":9,
			"componentType":5126,
			"count":66,
			"type":"VEC3"
		},
		{
			"bufferView":10,
			"componentType":5126,
			"count":66,
			"type":"VEC2"
		},
		{
			"bufferView":11,
			"componentType":5123,
			"count":192,
			"type":"SCALAR"
		}
	],
	"bufferViews":[
		{
			"buffer":0,
			"byteLength":6192,
			"byteOffset":0,
			"target":34962
		},
		{
			"buffer":0,
			"byteLength":6192,
			"byteOffset":6192,
			"target":34962
		},
		{
			"buffer":0,
			"byteLength":4128,
			"byteOffset":12384,
			"target":34962
		},
		{
			"buffer":0,
			"byteLength":4938,
			"byteOffset":16512,
			"target":34963
		},
		{
			"buffer":0,
			"byteLength":2040,
			"byteOffset":21452,
			"target":34962
		},
		{
			"buffer":0,
			"byteLength":2040,
			"byteOffset":23492,
			"target":34962
		},
		{
			"buffer":0,
			"byteLength":1360,
			"byteOffset":25532,
			"target":34962
		},
		{
			"buffer":0,
			"byteLength":1314,
			"byteOffset":26892,
			"target":34963
		},
		{
			"buffer":0,
			"byteLength":792,
			"byteOffset":28208,
			"target":34962
		},
		{
			"buffer":0,
			"byteLength":792,
			"byteOffset":29000,
			"target":34962
		},
		{
			"buffer":0,
			"byteLength":528,
			"byteOffset":29792,
			"target":34962
		},
		{
			"buffer":0,
			"byteLength":384,
			"byteOffset":30320,
			"target":34963
		}
	],
	"buffers":[
		{
			"byteLength":30704,
			"uri":"data:application/octet-stream;base64,"
		}
	]
}
