{
	"asset":{
		"generator":"Khronos glTF Blender I/O v3.6.27",
		"version":"2.0"
	},
	"scene":0,
	"scenes":[
		{
			"name":"Scene",
			"nodes":[
				0,
				1
			]
		}
	],
	"nodes":[
		{
			"mesh":0,
			"name":"player-captures",
			"scale":[
				7.313327789306641,
				1.2426073551177979,
				7.313327789306641
			]
		},
		{
			"mesh":1,
			"name":"capture-house",
			"scale":[
				7.313327789306641,
				1.2426073551177979,
				7.313327789306641
			]
		}
	],
	"materials":[
		{
			"doubleSided":true,
			"name":"Material.002",
			"pbrMetallicRoughness":{
				"baseColorTexture":{
					"index":0
				},
				"metallicFactor":0,
				"roughnessFactor":0.5
			}
		}
	],
	"meshes":[
		{
			"name":"Cube.001",
			"primitives":[
				{
					"attributes":{
						"POSITION":0,
						"NORMAL":1,
						"TEXCOORD_0":2
					},
					"indices":3,
					"material":0
				}
			]
		},
		{
			"name":"Cube.002",
			"primitives":[
				{
					"attributes":{
						"POSITION":4,
						"NORMAL":5,
						"TEXCOORD_0":6
					},
					"indices":7,
					"material":0
				}
			]
		}
	],
	"textures":[
		{
			"sampler":0,
			"source":0
		}
	],
	"images":[
		{
			"bufferView":4,
			"mimeType":"image/jpeg",
			"name":"brown-wooden-flooring"
		}
	],
	"accessors":[
		{
			"bufferView":0,
			"componentType":5126,
			"count":15425,
			"max":[
				1,
				1,
				1
			],
			"min":[
				-1,
				-1,
				-1
			],
			"type":"VEC3"
		},
		{
			"bufferView":1,
			"componentType":5126,
			"count":15425,
			"type":"VEC3"
		},
		{
			"bufferView":2,
			"componentType":5126,
			"count":15425,
			"type":"VEC2"
		},
		{
			"bufferView":3,
			"componentType":5123,
			"count":28029,
			"type":"SCALAR"
		},
		{
			"bufferView":5,
			"componentType":5126,
			"count":363,
			"max":[
				0.8104460835456848,
				1,
				0.848105251789093
			],
			"min":[
				-0.8104457259178162,
				-0.900910496711731,
				-0.8481055498123169
			],
			"type":"VEC3"
		},
		{
			"bufferView":6,
			"componentType":5126,
			"count":363,
			"type":"VEC3"
		},
		{
			"bufferView":7,
			"componentType":5126,
			"count":363,
			"type":"VEC2"
		},
		{
			"bufferView":8,
			"componentType":5123,
			"count":1641,
			"type":"SCALAR"
		}
	],
	"bufferViews":[
		{
			"buffer":0,
			"byteLength":185100,
			"byteOffset":0,
			"target":34962
		},
		{
			"buffer":0,
			"byteLength":185100,
			"byteOffset":185100,
			"target":34962
		},
		{
			"buffer":0,
			"byteLength":123400,
			"byteOffset":370200,
			"target":34962
		},
		{
			"buffer":0,
			"byteLength":56058,
			"byteOffset":493600,
			"target":34963
		},
		{
			"buffer":0,
			"byteLength":1916130,
			"byteOffset":549660
		},
		{
			"buffer":0,
			"byteLength":4356,
			"byteOffset":2465792,
			"target":34962
		},
		{
			"buffer":0,
			"byteLength":4356,
			"byteOffset":2470148,
			"target":34962
		},
		{
			"buffer":0,
			"byteLength":2904,
			"byteOffset":2474504,
			"target":34962
		},
		{
			"buffer":0,
			"byteLength":3282,
			"byteOffset":2477408,
			"target":34963
		}
	],
	"samplers":[
		{
			"magFilter":9729,
			"minFilter":9987
		}
	],
	"buffers":[
		{
			"byteLength":2480692,
			"uri":"data:application/octet-stream;base64,"
		}
	]
}
